#!OML:ASF E:/inclinewalkrobotboard/Project1/Captureday1/Session1/subject1.ASF
:FULLY-SPECIFIED
:DEGREES
251
root 0 0 0 1.5398223555454966 -3.867960424844897 1.851827297075869
lowerback 12.239523631519116 0.960660274187294 0.02520492457727097
upperback -4.4468193918532055 1.2162339390691257 -0.6308756443736215
thorax -11.735753233316409 0.562560535994818 -0.9370306935073034
lowerneck -6.067365156759364 1.8661718583934126 4.774006570406572
upperneck 18.110036882185373 3.499090890684511 -8.585511860858324
head 6.648199790878707 1.3077874488361032 -3.2799813414903305
rclavicle 2.15921355632092E-15 -7.097244026120288E-16
rhumerus 21.08786913422781 15.626753791453345 -47.80712047444759
rradius 73.2761443687177
rwrist 26.694553875610204
rhand -34.615148444250345 -57.18118379082123
rfingers 7.1250200000000286
rthumb -7.717477845166924 -87.14229162391143
lclavicle -7.413365741930031E-16 -7.506224460401477E-16
lhumerus 23.169749809899265 -14.453444330594975 44.74510554632703
lradius 71.82771839282401
lwrist -22.253923017740696
lhand -45.75361260136866 -71.95530557353149
lfingers 7.1250200000000286
lthumb -18.50767930521686 -42.73863653680124
rfemur -24.97263567650986 -1.9509583136001991 17.778044161027367
rtibia 50.65522962765063
rfoot -34.2643365906449 -18.288073697401387
rtoes -21.875203106739704
lfemur -28.081525461030537 2.143262171815795 -17.152641798834033
ltibia 50.8670491611211
lfoot -35.54284798356839 -0.27988379958935417
ltoes -22.09655059435621
252
root 0 0 0 1.5398500259044123 -3.868002908414883 1.851783911867933
lowerback 12.239496927131182 0.9606867908143365 0.02524157086383877
upperback -4.446810938246381 1.2162718067178306 -0.6308717166778307
thorax -11.73572460927095 0.5625783281571143 -0.937051246632199
lowerneck -6.067401885472387 1.866168149511419 4.77399996229565
upperneck 18.110070470382595 3.499084082498028 -8.585505503102405
head 6.648216007153468 1.3077834894916975 -3.2799788843149873
rclavicle 2.1590877373572357E-15 -7.097865556629101E-16
rhumerus 21.087800606243157 15.626646732496896 -47.80703754849953
rradius 73.27609243947492
rwrist 26.694641070807258
rhand -34.61515663148092 -57.18121013649424
rfingers 7.1250200000000286
rthumb -7.71748538702157 -87.14232364187338
lclavicle -7.414280115575347E-16 -7.506185216166363E-16
lhumerus 23.169643288226446 -14.453288625543362 44.745077886798654
lradius 71.82760368898231
lwrist -22.253992917090514
lhand -45.75358845908275 -71.95533900635706
lfingers 7.1250200000000286
lthumb -18.507654540775846 -42.73867380673656
rfemur -24.971419103975936 -1.9507000478462215 17.778552735993276
rtibia 50.653716890926056
rfoot -34.26524892504277 -18.28768458619466
rtoes -21.876560827735847
lfemur -28.08132806364122 2.142853932759578 -17.151822050752575
ltibia 50.86642515224872
lfoot -35.54113456116317 -0.28063843702304636
ltoes -22.097883410332834
253
root 0 0 0 1.5398528894358905 -3.868028398810655 1.8517524101716085
lowerback 12.239485552525425 0.96070483970892 0.025274020599727998
upperback -4.44680822929002 1.2162981917584372 -0.6308696326677968
thorax -11.735713036092424 0.5625906612605716 -0.9370697381957416
lowerneck -6.067418143285382 1.8661688042153293 4.774003010821099
upperneck 18.110110855367445 3.499084364189522 -8.5855142656807
head 6.64823105432854 1.30778246108996 -3.279982330926014
rclavicle 2.1588680649895483E-15 -7.099716812344704E-16
rhumerus 21.087642399398746 15.626413954615407 -47.8068648387661
rradius 73.27596572853814
rwrist 26.694823863108383
rhand -34.615162764216876 -57.181263208462454
rfingers 7.1250200000000286
rthumb -7.717490569576089 -87.14237559398265
lclavicle -7.415709538864941E-16 -7.506947394424365E-16
lhumerus 23.16950977549383 -14.45307437824514 44.74502994845926
lradius 71.8274535218436
lwrist -22.254102694159982
lhand -45.75356562159458 -71.95543300422332
lfingers 7.1250200000000286
lthumb -18.507630565221874 -42.73877238145805
rfemur -24.970571442284932 -1.9507922659134262 17.778566208177153
rtibia 50.65435045701357
rfoot -34.26475834960792 -18.287199350341183
rtoes -21.877184312979665
lfemur -28.081143255318572 2.142792841090633 -17.151284212965137
ltibia 50.867513486646835
lfoot -35.53877082475896 -0.2819542492985816
ltoes -22.098403591932176
254
root 0 0 0 1.5398375380548894 -3.868035513598005 1.8517371920497392
lowerback 12.239487843485637 0.9607123902816475 0.025295371514517273
upperback -4.446810252060213 1.216309861376923 -0.6308693725910522
thorax -11.73571639268381 0.562596051303907 -0.9370821386172741
lowerneck -6.067415883550868 1.8661723730559105 4.774012106021228
upperneck 18.11014590347969 3.499089576786054 -8.585531495614541
head 6.648241502053273 1.3077837583139629 -3.279989077195383
rclavicle 2.1586372820649598E-15 -7.10197118842159E-16
rhumerus 21.087460629126006 15.626150897674004 -47.80667212214035
rradius 73.27581806105712
rwrist 26.69502823179146
rhand -34.61516591127122 -57.1813218241596
rfingers 7.1250200000000286
rthumb -7.717492789852258 -87.14242857949932
lclavicle -7.417143895942155E-16 -7.508083746112763E-16
lhumerus 23.16939071431934 -14.452872574442157 44.744979727356025
lradius 71.82731600682389
lwrist -22.254213067293108
lhand -45.753549434387324 -71.9555461548583
lfingers 7.1250200000000286
lthumb -18.507613161147415 -42.73888948237442
rfemur -24.970196562670896 -1.9511085743241088 17.778227089613793
rtibia 50.656339030593
rfoot -34.26340128007283 -18.28676798036875
rtoes -21.877133587301536
lfemur -28.08101367968623 2.1429919167274596 -17.15108011802072
ltibia 50.869536601416115
lfoot -35.53654106575594 -0.2833359274109153
ltoes -22.098220054861454
255
root 0 0 0 1.539813189638243 -3.868027883736442 1.8517372781286006
lowerback 12.239499198567987 0.9607106422712945 0.02530353751043074
upperback -4.446815105164501 1.2163082246172743 -0.6308704649640654
thorax -11.735729438192287 0.5625951922382881 -0.937087132414347
lowerneck -6.067401129212929 1.8661771016329498 4.774023184331652
upperneck 18.110168395810785 3.499096959002146 -8.58555037526974
head 6.648246084849333 1.3077863701943224 -3.2799964583791867
rclavicle 2.1584565242866506E-15 -7.1039447407776685E-16
rhumerus 21.087307820418744 15.62593244910502 -47.80651362005356
rradius 73.27569264224066
rwrist 26.695196571160054
rhand -34.61516616315215 -57.18136965199879
rfingers 7.1250200000000286
rthumb -7.717492364035969 -87.14246900764203
lclavicle -7.41822216095496E-16 -7.509199167659403E-16
lhumerus 23.16931170144671 -14.452730150987689 44.74494048968738
lradius 71.82722189867597
lwrist -22.254296183549492
lhand -45.753541996691915 -71.95564444098858
lfingers 7.1250200000000286
lthumb -18.50760475603516 -42.73899028596338
rfemur -24.970249220831555 -1.9515036300285091 17.77772428492102
rtibia 50.65878473137204
rfoot -34.26177321155492 -18.286482742574627
rtoes -21.876620009240856
lfemur -28.080955516797882 2.1433246002457786 -17.151162679681253
ltibia 50.87171167992528
lfoot -35.53496497890552 -0.2844175691122288
ltoes -22.097586075553096
256
root 0 0 0 1.5397886011869963 -3.868011764958711 1.8517481402324267
lowerback 12.239514099130133 0.9607027729681283 0.025300352943902316
upperback -4.446820737726917 1.2162976111771886 -0.6308722378517898
thorax -11.735746046347018 0.56259014013477 -0.9370856484498202
lowerneck -6.067381261759331 1.8661814617494217 4.774032882918204
upperneck 18.110176391367432 3.4991040192649168 -8.585565683145923
head 6.648245381607538 1.3077892539839553 -3.280002436152948
rclavicle 2.1583563772437666E-15 -7.105225369781085E-16
rhumerus 21.087213754469985 15.625800239148132 -47.806418996206446
rradius 73.27561436338624
rwrist 26.695297286339482
rhand -34.61516430905643 -57.181397875959746
rfingers 7.1250200000000286
rthumb -7.717490177952376 -87.14249043951028
lclavicle -7.418778848693011E-16 -7.510020134765073E-16
lhumerus 23.16928074909535 -14.45266532595377 44.744918839651675
lradius 71.827182005764
lwrist -22.254339230642977
lhand -45.75354259466401 -71.9557075921806
lfingers 7.1250200000000286
lthumb -18.50760480523194 -42.739054312587115
rfemur -24.97059029315579 -1.9518551708080034 17.77723207939034
rtibia 50.660939623090144
rfoot -34.26036215642662 -18.28637210157101
rtoes -21.875908706681734
lfemur -28.080962281944505 2.143668121049976 -17.151426790624143
ltibia 50.87344848229345
lfoot -35.534245349412735 -0.28501627770336624
ltoes -22.0967933249294
257
root 0 0 0 1.5397700091953652 -3.867993697734849 1.8517638816957822
lowerback 12.23952776358382 0.9606925584111339 0.02528995832732922
upperback -4.4468255077434025 1.2162833259991266 -0.6308740464263439
thorax -11.735761002655654 0.5625833966701924 -0.9370799662626497
lowerneck -6.067362769608163 1.8661844684773155 4.774039176525815
upperneck 18.110172157124346 3.4991090817985517 -8.585574633102967
head 6.648241126387003 1.3077916063418549 -3.280005925136197
rclavicle 2.158338213778448E-15 -7.105695975138504E-16
rhumerus 21.087184713801335 15.625762015888908 -47.80639316199517
rradius 73.27558896618706
rwrist 26.695325042342013
rhand -34.61516143398741 -57.18140519204345
rfingers 7.1250200000000286
rthumb -7.71748729798777 -87.1424930955364
lclavicle -7.418827918441685E-16 -7.510427440188653E-16
lhumerus 23.169291462683425 -14.452671498942326 44.744915026335136
lradius 71.82719036265152
lwrist -22.254343215727722
lhand -45.75354871105561 -71.95573011922575
lfingers 7.1250200000000286
lthumb -18.507610805918286 -42.739076337196266
rfemur -24.97104929396855 -1.9520878622168958 17.776870772997313
rtibia 50.662349004951494
rfoot -34.25945803877531 -18.28641238513594
rtoes -21.875236293639645
lfemur -28.08101314883665 2.1439331429813984 -17.15175274753693
ltibia 50.874440552100886
lfoot -35.53431048792901 -0.2851241228391812
ltoes -22.096087419161904
